<?xml version="1.0" encoding="UTF-8" standalone="no"?>
<!-- Created with Inkscape (http://www.inkscape.org/) -->

<svg
   width="400mm"
   height="400mm"
   viewBox="0 0 400 400"
   version="1.1"
   id="svg5"
   xml:space="preserve"
   inkscape:version="1.2.2 (b0a8486541, 2022-12-01)"
   sodipodi:docname="262dabf1-d7b1-42c8-91a1-fe991631547c.svg"
   xmlns:inkscape="http://www.inkscape.org/namespaces/inkscape"
   xmlns:sodipodi="http://sodipodi.sourceforge.net/DTD/sodipodi-0.dtd"
   xmlns="http://www.w3.org/2000/svg"
   xmlns:svg="http://www.w3.org/2000/svg"><sodipodi:namedview
     id="namedview7"
     pagecolor="#ffffff"
     bordercolor="#000000"
     borderopacity="0.25"
     inkscape:showpageshadow="2"
     inkscape:pageopacity="0.0"
     inkscape:pagecheckerboard="0"
     inkscape:deskcolor="#d1d1d1"
     inkscape:document-units="mm"
     showgrid="false"
     inkscape:zoom="0.4204826"
     inkscape:cx="104.64167"
     inkscape:cy="602.87869"
     inkscape:window-width="1920"
     inkscape:window-height="1120"
     inkscape:window-x="0"
     inkscape:window-y="0"
     inkscape:window-maximized="1"
     inkscape:current-layer="layer1" /><defs
     id="defs2"><clipPath
       clipPathUnits="userSpaceOnUse"
       id="clipPath210"><path
         d="M 64.09713,512 H 447.9029 c 22.2879,0 30.3701,-2.3206 38.5182,-6.6783 8.1482,-4.3577 14.5429,-10.7524 18.9006,-18.9006 C 509.6794,478.273 512,470.1908 512,447.9029 V 64.09713 C 512,41.80916 509.6794,33.72701 505.3217,25.57886 500.964,17.43071 494.5693,11.03599 486.4211,6.678318 478.273,2.32064 470.1908,0 447.9029,0 H 64.09713 C 41.80916,0 33.72701,2.32064 25.57886,6.678318 17.43071,11.03599 11.03599,17.43071 6.678318,25.57886 2.32064,33.72701 0,41.80916 0,64.09713 V 447.9029 c 0,22.2879 2.32064,30.3701 6.678318,38.5182 4.357672,8.1482 10.752392,14.5429 18.900542,18.9006 8.14815,4.3577 16.2303,6.6783 38.51827,6.6783 z"
         clip-rule="evenodd"
         id="path208" /></clipPath><clipPath
       clipPathUnits="userSpaceOnUse"
       id="clipPath216"><path
         d="M 0,0 H 512 V 512 H 0 Z"
         id="path214" /></clipPath><clipPath
       clipPathUnits="userSpaceOnUse"
       id="clipPath226"><path
         d="M 310.6214,362 424.7089,162.0939 H 310.6961 l -57.0086,99.4988 z"
         clip-rule="evenodd"
         id="path224" /></clipPath><clipPath
       clipPathUnits="userSpaceOnUse"
       id="clipPath232"><path
         d="M 0,0 H 512 V 512 H 0 Z"
         id="path230" /></clipPath><clipPath
       clipPathUnits="userSpaceOnUse"
       id="clipPath242"><path
         d="M 197.1006,362 83.51535,162.0939 H 197.1006 L 310.6214,362 Z"
         clip-rule="evenodd"
         id="path240" /></clipPath><clipPath
       clipPathUnits="userSpaceOnUse"
       id="clipPath248"><path
         d="M 0,0 H 512 V 512 H 0 Z"
         id="path246" /></clipPath><clipPath
       clipPathUnits="userSpaceOnUse"
       id="clipPath2948"><path
         d="M 64.09713,512 H 447.9029 c 22.2879,0 30.3701,-2.3206 38.5182,-6.6783 8.1482,-4.3577 14.5429,-10.7524 18.9006,-18.9006 C 509.6794,478.273 512,470.1908 512,447.9029 V 64.09713 C 512,41.80916 509.6794,33.72701 505.3217,25.57886 500.964,17.43071 494.5693,11.03599 486.4211,6.678318 478.273,2.32064 470.1908,0 447.9029,0 H 64.09713 C 41.80916,0 33.72701,2.32064 25.57886,6.678318 17.43071,11.03599 11.03599,17.43071 6.678318,25.57886 2.32064,33.72701 0,41.80916 0,64.09713 V 447.9029 c 0,22.2879 2.32064,30.3701 6.678318,38.5182 4.357672,8.1482 10.752392,14.5429 18.900542,18.9006 8.14815,4.3577 16.2303,6.6783 38.51827,6.6783 z"
         clip-rule="evenodd"
         id="path2946" /></clipPath><clipPath
       clipPathUnits="userSpaceOnUse"
       id="clipPath2952"><path
         d="M 0,0 H 512 V 512 H 0 Z"
         id="path2950" /></clipPath><clipPath
       clipPathUnits="userSpaceOnUse"
       id="clipPath2956"><path
         d="M 310.6214,362 424.7089,162.0939 H 310.6961 l -57.0086,99.4988 z"
         clip-rule="evenodd"
         id="path2954" /></clipPath><clipPath
       clipPathUnits="userSpaceOnUse"
       id="clipPath2960"><path
         d="M 0,0 H 512 V 512 H 0 Z"
         id="path2958" /></clipPath><clipPath
       clipPathUnits="userSpaceOnUse"
       id="clipPath2964"><path
         d="M 197.1006,362 83.51535,162.0939 H 197.1006 L 310.6214,362 Z"
         clip-rule="evenodd"
         id="path2962" /></clipPath><clipPath
       clipPathUnits="userSpaceOnUse"
       id="clipPath2968"><path
         d="M 0,0 H 512 V 512 H 0 Z"
         id="path2966" /></clipPath><linearGradient
       id="linearGradient1507"
       y2="50.93"
       gradientUnits="userSpaceOnUse"
       x2="45.964001"
       gradientTransform="rotate(90,32.5245,30.5245)"
       y1="10.692"
       x1="22.040001"
       inkscape:collect="always"><stop
         id="stop2858"
         style="stop-color:#3c44dc"
         offset="0" /><stop
         id="stop2860"
         style="stop-color:#0d1f6a"
         offset="1" /></linearGradient><radialGradient
       id="radialGradient1498"
       gradientUnits="userSpaceOnUse"
       cy="7.0983"
       cx="-15.475"
       gradientTransform="matrix(-0.1316,1.117,-1.0576,-0.12462,33.357,39.585)"
       r="17.1"
       inkscape:collect="always"><stop
         id="stop3632"
         style="stop-color:#d2d0f3"
         offset="0" /><stop
         id="stop3634"
         style="stop-color:#1c3db8"
         offset="1" /></radialGradient><linearGradient
       id="linearGradient1503"
       y2="48.499001"
       gradientUnits="userSpaceOnUse"
       x2="1.7526"
       gradientTransform="rotate(90,13,43.438)"
       y1="16.375999"
       x1="1.6305"
       inkscape:collect="always"><stop
         id="stop3704"
         style="stop-color:#ced1f2"
         offset="0" /><stop
         id="stop3706"
         style="stop-color:#1d42c9;stop-opacity:0"
         offset="1" /></linearGradient></defs><g
     inkscape:label="Layer 1"
     inkscape:groupmode="layer"
     id="layer1"><g
       id="g1098"
       transform="matrix(0.72194093,0,0,0.72194093,56.202518,-18.22636)"><g
         id="g2848"
         transform="translate(0,132.29169)"><path
           style="fill:#000000;stroke-width:0.788109"
           d="m 93.08823,251.25879 c -1.256,-0.50614 -1.85021,-1.60552 -2.20938,-4.08762 -0.27021,-1.86739 -0.38369,-24.26239 -0.25218,-49.76667 l 0.23911,-46.37141 1.86055,-1.5062 c 1.77059,-1.43335 3.58886,-1.50619 37.6015,-1.50619 h 35.74094 l 1.60691,1.72482 c 1.56872,1.68382 1.60692,2.58403 1.60692,37.86505 v 36.14022 l -1.93445,1.93444 -1.93445,1.93445 -21.51179,-0.0251 c -16.63825,-0.0194 -21.82424,-0.26226 -22.89097,-1.07202 -1.09611,-0.83207 -1.37919,-2.25041 -1.37919,-6.91029 0,-3.50957 0.37966,-6.243 0.94573,-6.80907 0.66454,-0.66454 5.10571,-0.94573 14.93699,-0.94573 8.93907,0 14.71609,-0.33027 15.9986,-0.91462 l 2.00736,-0.91461 v -22.30686 c 0,-21.24756 -0.0724,-22.34561 -1.52441,-23.12271 -0.94084,-0.50353 -9.52216,-0.81584 -22.41641,-0.81584 -20.69579,0 -20.90353,0.0165 -22.11886,1.75158 -1.07237,1.53103 -1.22685,6.93368 -1.22685,42.90724 v 41.15566 l -1.75158,1.22686 c -1.90891,1.33705 -8.5281,1.58952 -11.39409,0.43458 z m -28.1142,-24.63911 c -1.25637,-0.91868 -1.36503,-3.37012 -1.33619,-30.14516 0.0238,-22.0587 -0.21205,-29.62422 -0.96984,-31.11543 -0.86492,-1.70203 -1.61314,-2.00238 -5.49586,-2.2061 -3.55886,-0.18674 -4.74439,-0.59243 -5.6943,-1.94861 -1.58246,-2.25929 -1.56606,-9.15742 0.0272,-11.4321 1.16838,-1.66809 1.75236,-1.75158 12.25151,-1.75158 10.65438,0 11.08963,0.0649 12.95911,1.93445 l 1.93445,1.93444 v 36.56074 c 0,42.16941 0.58175,39.16935 -7.59549,39.16935 -2.59214,0 -5.3284,-0.45 -6.08057,-1 z m 119.21434,-0.0102 c -2.9839,-2.29096 -3.08414,-3.5768 -3.08414,-39.56141 v -35.15848 l 1.93446,-1.93444 1.93444,-1.93445 h 35.32536 c 30.69668,0 35.55486,0.16075 37.07693,1.22685 1.73445,1.21485 1.75158,1.42938 1.75158,21.92967 0,20.62141 -0.007,20.70955 -1.82404,22.41641 -1.77975,1.67199 -2.34037,1.71359 -23.09158,1.71359 -15.49062,0 -21.52444,-0.25689 -22.21328,-0.94573 -0.562,-0.56199 -0.94573,-3.26887 -0.94573,-6.6712 0,-4.89766 0.22539,-5.84608 1.55889,-6.55976 0.89057,-0.47661 7.63161,-0.91084 15.7238,-1.01286 9.36681,-0.11808 14.47028,-0.4843 15.06644,-1.08114 0.53173,-0.53233 0.90155,-3.58542 0.90155,-7.44272 0,-5.36985 -0.25192,-6.72436 -1.40785,-7.5696 -1.07571,-0.78658 -6.39243,-1.02945 -22.53616,-1.02945 -20.0775,0 -21.2067,0.0784 -22.70452,1.57622 -1.49926,1.49926 -1.57622,2.62703 -1.57622,23.09858 0,17.3376 0.21738,21.81981 1.11799,23.05218 1.06397,1.45589 2.57801,1.54886 31.32733,1.92388 l 30.20933,0.39405 0.23343,6.28882 c 0.19441,5.2373 0.005,6.45622 -1.13576,7.29001 -1.94085,1.41918 -71.79321,1.41063 -73.64225,-0.009 z m 87.35134,0.15897 c -1.11283,-0.64817 -1.37919,-1.90683 -1.37919,-6.51734 0,-3.39344 0.38409,-6.09812 0.94573,-6.65976 0.52016,-0.52015 2.84869,-0.94573 5.17452,-0.94573 2.32584,0 4.89718,-0.35772 5.7141,-0.79492 2.3957,-1.28214 17.32568,-21.95751 17.32568,-23.99298 0,-0.52876 -2.41598,-4.47732 -5.36885,-8.77459 -11.42893,-16.6324 -10.69895,-15.94179 -16.94704,-16.03297 -6.22026,-0.0908 -6.84414,-0.76647 -6.84414,-7.41253 0,-3.40233 0.38374,-6.10921 0.94573,-6.6712 1.04851,-1.04851 18.52634,-1.3479 19.99954,-0.34258 0.46667,0.31845 3.31178,4.1255 6.32246,8.4601 11.06227,15.9268 10.95165,15.80107 13.12285,14.91796 0.54182,-0.22039 3.46768,-3.97249 6.50189,-8.33802 3.03422,-4.36553 6.87687,-9.67114 8.53922,-11.79025 l 3.02244,-3.85294 h 9.3721 c 9.13913,0 9.40434,0.0492 10.66924,1.97969 1.47943,2.2579 1.24385,10.01685 -0.35262,11.61332 -0.51028,0.51028 -3.48927,1.16257 -6.61996,1.44954 -4.7477,0.43517 -5.91849,0.83238 -7.05621,2.39393 -9.1282,12.52876 -14.76853,21.07721 -14.75527,22.36301 0.009,0.86692 1.42173,3.52679 3.13952,5.91082 1.71779,2.38403 5.22493,7.39137 7.79366,11.12742 2.56873,3.73606 5.25344,7.01656 5.96604,7.29001 0.7126,0.27345 3.38636,0.49718 5.94166,0.49718 5.98715,0 7.42486,1.7341 6.88045,8.29892 -0.50845,6.13131 -1.39631,6.61931 -12.09902,6.65008 -10.02537,0.0289 -9.713,0.21119 -16.15571,-9.43224 -3.24557,-4.85798 -7.3781,-10.56395 -9.84603,-13.59488 -0.61765,-0.75855 -1.60821,-1.37919 -2.20124,-1.37919 -0.59303,0 -4.70269,5.14477 -9.13256,11.43281 -4.42988,6.28805 -8.71259,11.78511 -9.51713,12.21569 -1.91402,1.02435 -17.32045,0.96921 -19.10186,-0.0683 z"
           id="path179" /><path
           id="path2824"
           style="fill:#adc80c;fill-opacity:1;stroke-width:0.278904"
           d="m 30.419,155.55291 v 1.50937 1.50937 1.50938 c 0,1.36163 0.67237,1.50937 1.47463,1.50937 h 1.47462 1.47464 1.47462 1.47463 1.47463 1.47462 c 1.87086,0 1.47463,-1.3478 1.47463,-1.50955 v -1.50954 -1.50956 -1.50954 -1.50954 -1.50955 -1.50955 c 0,-1.42111 -1.16696,-1.50955 -1.47463,-1.50955 h -1.47462 -1.47463 -1.47463 -1.47462 -1.47464 -1.47462 c -1.47517,0 -1.47463,0.57614 -1.47463,1.50972 v 1.50972 1.50972 z"
           sodipodi:nodetypes="cccsscccccsscccccsscccccssccc" /><path
           id="path2827"
           style="fill:#adc80c;fill-opacity:1;stroke-width:0.278904"
           d="m 361.99767,154.81132 v 1.50937 1.50937 1.50938 c 0,1.36163 0.67237,1.50937 1.47463,1.50937 h 1.47462 1.47464 1.47462 1.47463 1.47463 1.47462 c 1.87086,0 1.47463,-1.3478 1.47463,-1.50955 v -1.50954 -1.50956 -1.50954 -1.50954 -1.50955 -1.50955 c 0,-1.42111 -1.16696,-1.50955 -1.47463,-1.50955 h -1.47462 -1.47463 -1.47463 -1.47462 -1.47464 -1.47462 c -1.47517,0 -1.47463,0.57614 -1.47463,1.50972 v 1.50972 1.50972 z"
           sodipodi:nodetypes="cccsscccccsscccccsscccccssccc" /></g><g
         id="g418"
         transform="matrix(0.43773402,0,0,-0.43773402,87.940091,264.43479)"><g
           id="g340" /><g
           id="g348"><g
             id="g346"
             clip-path="url(#clipPath210)"><g
               id="g344"
               clip-path="url(#clipPath216)"><path
                 d="M -1,513 H 513 V -1 H -1 Z"
                 style="fill:#f6b102;fill-opacity:1;fill-rule:nonzero;stroke:none"
                 id="path342" /></g></g></g><g
           id="g356"><g
             id="g354"
             clip-path="url(#clipPath226)"><g
               id="g352"
               clip-path="url(#clipPath232)"><path
                 d="M 252.6875,363 H 425.7089 V 161.0939 H 252.6875 Z"
                 style="fill:#fdebbf;fill-opacity:1;fill-rule:nonzero;stroke:none"
                 id="path350" /></g></g></g><g
           id="g364"><g
             id="g362"
             clip-path="url(#clipPath242)"><g
               id="g360"
               clip-path="url(#clipPath248)"><path
                 d="M 82.51535,363 H 311.6214 V 161.0939 H 82.51535 Z"
                 style="fill:#ffffff;fill-opacity:1;fill-rule:nonzero;stroke:none"
                 id="path358" /></g></g></g><g
           id="g366" /><g
           id="g374"><g
             id="g372"
             clip-path="url(#clipPath210)"><g
               id="g370"
               clip-path="url(#clipPath216)"><path
                 d="M -1,513 H 513 V -1 H -1 Z"
                 style="fill:#f6b102;fill-opacity:1;fill-rule:nonzero;stroke:none"
                 id="path368" /></g></g></g><g
           id="g382"><g
             id="g380"
             clip-path="url(#clipPath226)"><g
               id="g378"
               clip-path="url(#clipPath232)"><path
                 d="M 252.6875,363 H 425.7089 V 161.0939 H 252.6875 Z"
                 style="fill:#fdebbf;fill-opacity:1;fill-rule:nonzero;stroke:none"
                 id="path376" /></g></g></g><g
           id="g390"><g
             id="g388"
             clip-path="url(#clipPath242)"><g
               id="g386"
               clip-path="url(#clipPath248)"><path
                 d="M 82.51535,363 H 311.6214 V 161.0939 H 82.51535 Z"
                 style="fill:#ffffff;fill-opacity:1;fill-rule:nonzero;stroke:none"
                 id="path384" /></g></g></g></g></g><g
       id="g1065"
       transform="translate(322.38535,354.05728)"><g
         id="g1941"
         transform="matrix(0.26458333,0,0,0.26458333,-243.88809,-90.004012)"><path
           id="path1943"
           style="fill:#000000"
           d="M 106.18,0 C 83.803,2.504 2.43,39.697 0.05,231.48 -2.4468,433.5 83.803,476 106.42,475.55 V 342.11 c -18.617,0 -22.363,-20.27 -26.617,-62.11 -2.815,-27.68 -3.636,-61.94 0,-96 2.552,-23.89 7,-47.22 26.497,-47.22 z" /><path
           id="path1945"
           style="fill:#000000"
           d="m 154.43,475.78 c 8.62,0 14.81,-7.03 14.81,-14.9 l 0.06,-0.06 c 0,0 -0.06,-104 -0.06,-104.07 0,-8.25 -6.69,-14.75 -14.81,-14.75 h -37.8 v 133.78 c 0,0 37.71,0.06 37.74,0.03 z" /><path
           id="path1947"
           style="fill:#000000"
           d="m 154.43,136.78 c 8.62,0 14.81,-7.03 14.81,-14.9 l 0.06,-0.06 c 0,0 -0.06,-107 -0.06,-107.07 C 169.24,6.504 162.55,0 154.43,0 h -37.8 v 136.78 c 0,0 37.71,0.06 37.74,0.03 z" /></g><g
         id="g5859"
         transform="matrix(1.3856384,0,0,1.4592165,-181.63915,-397.27479)"><g
           transform="matrix(-0.70666232,0,0,0.70666232,-6.0929638,-40.117016)"
           id="g5231"><g
             id="g5257"
             transform="translate(-6.4285711,-84.642857)" /><g
             transform="translate(-6.4285711,-92.64286)"
             id="g5273"><g
               id="g5275"><path
                 style="fill:#ffffff;stroke:none"
                 d="m -190.89286,425.75504 45,30.53571 0.53572,0.35715 8.92857,-3.39286 18.92857,-8.75 17.14286,-8.75 18.571426,-10 27.678571,-16.60714 7.857143,-4.82143 -43.571429,-21.96429 -36.785711,19.46429 -17.67857,8.39285 -24.28572,8.75 z"
                 id="path5277"
                 inkscape:connector-curvature="0"
                 transform="translate(6.4285711,84.642857)" /><path
                 style="fill:#005500;stroke:none"
                 d="m -83.203841,466.29464 c -55.310089,31.49436 -76.664149,35.62903 -103.590799,44.23291 l 47.49879,31.83852 c 35.8553,-14.36254 69.040859,-32.88026 101.072639,-53.21721 z m -0.31477,1.63947 41.70702,21.18196 c -29.70502,18.85968 -63.729829,37.8978 -96.980629,51.21706 l -44.03632,-29.51047 c 24.97073,-7.97891 48.01751,-13.68191 99.309929,-42.88855 z"
                 id="path5279"
                 inkscape:connector-curvature="0" /></g></g><g
             id="g5281"
             transform="translate(-6.4285711,-96.64286)"><g
               id="g5283"><path
                 transform="translate(6.4285711,84.642857)"
                 inkscape:connector-curvature="0"
                 id="path5285"
                 d="m -190.89286,425.75504 45,30.53571 0.53572,0.35715 8.92857,-3.39286 18.92857,-8.75 17.14286,-8.75 18.571426,-10 27.678571,-16.60714 7.857143,-4.82143 -43.571429,-21.96429 -36.785711,19.46429 -17.67857,8.39285 -24.28572,8.75 z"
                 style="fill:#ffffff;stroke:none" /><path
                 inkscape:connector-curvature="0"
                 id="path5287"
                 d="m -83.203841,466.29464 c -55.310089,31.49436 -76.664149,35.62903 -103.590799,44.23291 l 47.49879,31.83852 c 35.8553,-14.36254 69.040859,-32.88026 101.072639,-53.21721 z m -0.31477,1.63947 41.70702,21.18196 c -29.70502,18.85968 -63.729829,37.8978 -96.980629,51.21706 l -44.03632,-29.51047 c 24.97073,-7.97891 48.01751,-13.68191 99.309929,-42.88855 z"
                 style="fill:#005500;stroke:none" /></g></g><g
             transform="translate(-6.4285711,-100.64286)"
             id="g5289"><g
               id="g5291"><path
                 style="fill:#ffffff;stroke:none"
                 d="m -190.89286,425.75504 45,30.53571 0.53572,0.35715 8.92857,-3.39286 18.92857,-8.75 17.14286,-8.75 18.571426,-10 27.678571,-16.60714 7.857143,-4.82143 -43.571429,-21.96429 -36.785711,19.46429 -17.67857,8.39285 -24.28572,8.75 z"
                 id="path5293"
                 inkscape:connector-curvature="0"
                 transform="translate(6.4285711,84.642857)" /><path
                 style="fill:#005500;stroke:none"
                 d="m -83.203841,466.29464 c -55.310089,31.49436 -76.664149,35.62903 -103.590799,44.23291 l 47.49879,31.83852 c 35.8553,-14.36254 69.040859,-32.88026 101.072639,-53.21721 z m -0.31477,1.63947 41.70702,21.18196 c -29.70502,18.85968 -63.729829,37.8978 -96.980629,51.21706 l -44.03632,-29.51047 c 24.97073,-7.97891 48.01751,-13.68191 99.309929,-42.88855 z"
                 id="path5295"
                 inkscape:connector-curvature="0" /></g></g><g
             id="g5297"
             transform="translate(0,-14)"><path
               inkscape:connector-curvature="0"
               id="path5299"
               d="m -180.71429,422.00504 c 0,0 5.71429,3.92857 6.42858,7.14286 0.71428,3.21428 23.92857,16.78571 23.92857,16.78571 h 11.42857 l 7.85714,-1.78571 19.64286,-9.28572 15.714284,-6.78571 18.928572,-10.35715 17.857142,-10.71428 V 395.57647 L -84.642857,383.43361 -97.5,385.21932 l -11.78571,7.14286 -28.92858,12.85714 -37.5,13.21429 z"
               style="fill:#ffffff;stroke:none" /><g
               id="g5301"
               style="fill:#165016"><path
                 style="fill:#165016;stroke:none"
                 d="M -89.65625,378.78125 C -144.56747,408.797 -165.76753,412.73755 -192.5,420.9375 l 47.15625,30.34375 C -109.74702,437.59301 -76.800778,419.94466 -45,400.5625 Z M -78.75,387.3125 -63.875,395 c -0.955399,1.91634 -1.5,4.03707 -1.5,6.28125 0,2.55026 0.692363,4.95727 1.90625,7.0625 -21.463826,13.90825 -45.38187,24.75337 -69.875,34.875 -2.7124,-2.49005 -6.6914,-4.0625 -11.125,-4.0625 -3.62367,0 -6.93009,1.06679 -9.5,2.8125 l -17.4375,-11.3125 c 1.12739,-1.77781 1.75,-3.80691 1.75,-5.96875 0,-2.267 -0.7069,-4.37955 -1.9375,-6.21875 19.45498,-5.13454 54.12354,-20.98019 72.03125,-29.9375 2.577326,1.27086 5.824082,2.03125 9.375,2.03125 4.567016,0 8.656963,-1.26067 11.4375,-3.25 z"
                 id="path5303"
                 inkscape:connector-curvature="0" /><path
                 style="color:#000000;display:inline;overflow:visible;visibility:visible;fill:#165016;stroke:none;stroke-width:0.0791407;marker:none;enable-background:accumulate"
                 d="m -146.36813,410.11743 c -1.58551,7.11414 1.20048,14.03422 8.40277,18.38878 7.20233,4.35457 17.17174,5.14646 26.66229,2.81172 z"
                 id="path5305"
                 inkscape:connector-curvature="0"
                 sodipodi:nodetypes="cscc" /><path
                 sodipodi:nodetypes="cscc"
                 inkscape:connector-curvature="0"
                 id="path5307"
                 d="m -82.423075,417.96506 c 1.506079,-6.55188 -1.140337,-12.92505 -7.981804,-16.93546 -6.841505,-4.01042 -16.311461,-4.73972 -25.326551,-2.5895 z"
                 style="color:#000000;display:inline;overflow:visible;visibility:visible;fill:#165016;stroke:none;stroke-width:0.0740221;marker:none;enable-background:accumulate" /></g></g><path
             style="fill:#005500;stroke:none"
             d="m -145.17857,393.79076 40.71428,24.99999 0.14986,10.67087 20.57879,-10.40022 0.164211,-11.87779 -39.285711,-23.39286 z"
             id="path5309"
             inkscape:connector-curvature="0"
             sodipodi:nodetypes="ccccccc" /></g><path
           sodipodi:nodetypes="cccccccccccccc"
           inkscape:connector-curvature="0"
           id="path5857"
           d="m 127.8464,248.20324 -0.23853,1.7609 -1.53542,1.40864 2.01358,1.25366 -1.27645,1.61437 2.1288,1.2319 -25.32182,16.26715 12.76389,-10.1861 -8.72348,4.49246 11.73919,-9.55072 -8.71936,4.63275 10.98808,-8.90621 -8.96125,5.69782 z"
           style="fill:#165016;stroke:none" /></g><g
         id="g2471"
         transform="matrix(-1.6628914,0,0,-1.6628914,-113.53494,24.896843)"><path
           id="path2125"
           sodipodi:nodetypes="ccccsccccsccccc"
           style="fill:url(#linearGradient1507)"
           d="m 50,22 c 0,-1 -1,-1 -1,-1 H 32 c -0.049,-1 0,-5 0,-5 -0.009,-0.447 -0.109,-0.846 -0.523,-1.016 -0.414,-0.17 -0.889,-0.077 -1.209,0.235 l -16,16 c -0.422,0.435 -0.422,1.127 0,1.562 l 16,16 c 0.32,0.312 0.795,0.405 1.209,0.235 C 31.891,48.846 31.991,48.447 32,48 v -5 h 17.049 c 0,0 1,0 1,-1 C 50.049,36 50,28 50,22 Z" /><path
           id="path3636"
           style="fill:url(#radialGradient1498)"
           transform="rotate(90,32,32)"
           d="m 41.781,15.156 c -5.903,0.002 -13.643,0.061 -19.562,0.063 V 32 c 10e-4,0.649 -0.508,1.186 -1.157,1.219 -1.093,0.053 -4.057,0.008 -4.624,0 L 32,48.781 47.531,33.219 H 43 c -0.673,0 -1.219,-0.546 -1.219,-1.219 z" /><path
           id="path3696"
           sodipodi:nodetypes="cscccc"
           style="fill:url(#linearGradient1503)"
           d="m 41.969,23.219 c -4.118,0 -9.206,0.037 -9.75,0 C 29,23 31,19 29,20 27,21 17,32 17,32 L 28.062,42.938 C 31,35 35.276,27.638 41.969,23.219 Z" /></g></g></g></svg>
