<?xml version="1.0" encoding="UTF-8" standalone="no"?>
<!-- Created with Inkscape (http://www.inkscape.org/) -->

<svg
   width="400mm"
   height="400mm"
   viewBox="0 0 400 400"
   version="1.1"
   id="svg5"
   xml:space="preserve"
   inkscape:version="1.2.2 (b0a8486541, 2022-12-01)"
   sodipodi:docname="51b247aa-fd48-44d7-8494-8c86b05e5a66.svg"
   xmlns:inkscape="http://www.inkscape.org/namespaces/inkscape"
   xmlns:sodipodi="http://sodipodi.sourceforge.net/DTD/sodipodi-0.dtd"
   xmlns:xlink="http://www.w3.org/1999/xlink"
   xmlns="http://www.w3.org/2000/svg"
   xmlns:svg="http://www.w3.org/2000/svg"><sodipodi:namedview
     id="namedview7"
     pagecolor="#ffffff"
     bordercolor="#000000"
     borderopacity="0.25"
     inkscape:showpageshadow="2"
     inkscape:pageopacity="0.0"
     inkscape:pagecheckerboard="0"
     inkscape:deskcolor="#d1d1d1"
     inkscape:document-units="mm"
     showgrid="false"
     inkscape:zoom="0.4204826"
     inkscape:cx="16.647538"
     inkscape:cy="605.25691"
     inkscape:window-width="1920"
     inkscape:window-height="1164"
     inkscape:window-x="0"
     inkscape:window-y="0"
     inkscape:window-maximized="1"
     inkscape:current-layer="layer1" /><defs
     id="defs2"><clipPath
       clipPathUnits="userSpaceOnUse"
       id="clipPath210"><path
         d="M 64.09713,512 H 447.9029 c 22.2879,0 30.3701,-2.3206 38.5182,-6.6783 8.1482,-4.3577 14.5429,-10.7524 18.9006,-18.9006 C 509.6794,478.273 512,470.1908 512,447.9029 V 64.09713 C 512,41.80916 509.6794,33.72701 505.3217,25.57886 500.964,17.43071 494.5693,11.03599 486.4211,6.678318 478.273,2.32064 470.1908,0 447.9029,0 H 64.09713 C 41.80916,0 33.72701,2.32064 25.57886,6.678318 17.43071,11.03599 11.03599,17.43071 6.678318,25.57886 2.32064,33.72701 0,41.80916 0,64.09713 V 447.9029 c 0,22.2879 2.32064,30.3701 6.678318,38.5182 4.357672,8.1482 10.752392,14.5429 18.900542,18.9006 8.14815,4.3577 16.2303,6.6783 38.51827,6.6783 z"
         clip-rule="evenodd"
         id="path208" /></clipPath><clipPath
       clipPathUnits="userSpaceOnUse"
       id="clipPath216"><path
         d="M 0,0 H 512 V 512 H 0 Z"
         id="path214" /></clipPath><clipPath
       clipPathUnits="userSpaceOnUse"
       id="clipPath226"><path
         d="M 310.6214,362 424.7089,162.0939 H 310.6961 l -57.0086,99.4988 z"
         clip-rule="evenodd"
         id="path224" /></clipPath><clipPath
       clipPathUnits="userSpaceOnUse"
       id="clipPath232"><path
         d="M 0,0 H 512 V 512 H 0 Z"
         id="path230" /></clipPath><clipPath
       clipPathUnits="userSpaceOnUse"
       id="clipPath242"><path
         d="M 197.1006,362 83.51535,162.0939 H 197.1006 L 310.6214,362 Z"
         clip-rule="evenodd"
         id="path240" /></clipPath><clipPath
       clipPathUnits="userSpaceOnUse"
       id="clipPath248"><path
         d="M 0,0 H 512 V 512 H 0 Z"
         id="path246" /></clipPath><clipPath
       clipPathUnits="userSpaceOnUse"
       id="clipPath2948"><path
         d="M 64.09713,512 H 447.9029 c 22.2879,0 30.3701,-2.3206 38.5182,-6.6783 8.1482,-4.3577 14.5429,-10.7524 18.9006,-18.9006 C 509.6794,478.273 512,470.1908 512,447.9029 V 64.09713 C 512,41.80916 509.6794,33.72701 505.3217,25.57886 500.964,17.43071 494.5693,11.03599 486.4211,6.678318 478.273,2.32064 470.1908,0 447.9029,0 H 64.09713 C 41.80916,0 33.72701,2.32064 25.57886,6.678318 17.43071,11.03599 11.03599,17.43071 6.678318,25.57886 2.32064,33.72701 0,41.80916 0,64.09713 V 447.9029 c 0,22.2879 2.32064,30.3701 6.678318,38.5182 4.357672,8.1482 10.752392,14.5429 18.900542,18.9006 8.14815,4.3577 16.2303,6.6783 38.51827,6.6783 z"
         clip-rule="evenodd"
         id="path2946" /></clipPath><clipPath
       clipPathUnits="userSpaceOnUse"
       id="clipPath2952"><path
         d="M 0,0 H 512 V 512 H 0 Z"
         id="path2950" /></clipPath><clipPath
       clipPathUnits="userSpaceOnUse"
       id="clipPath2956"><path
         d="M 310.6214,362 424.7089,162.0939 H 310.6961 l -57.0086,99.4988 z"
         clip-rule="evenodd"
         id="path2954" /></clipPath><clipPath
       clipPathUnits="userSpaceOnUse"
       id="clipPath2960"><path
         d="M 0,0 H 512 V 512 H 0 Z"
         id="path2958" /></clipPath><clipPath
       clipPathUnits="userSpaceOnUse"
       id="clipPath2964"><path
         d="M 197.1006,362 83.51535,162.0939 H 197.1006 L 310.6214,362 Z"
         clip-rule="evenodd"
         id="path2962" /></clipPath><clipPath
       clipPathUnits="userSpaceOnUse"
       id="clipPath2968"><path
         d="M 0,0 H 512 V 512 H 0 Z"
         id="path2966" /></clipPath><linearGradient
       id="linearGradient1507"
       y2="50.93"
       gradientUnits="userSpaceOnUse"
       x2="45.964001"
       gradientTransform="rotate(90,32.5245,30.5245)"
       y1="10.692"
       x1="22.040001"
       inkscape:collect="always"><stop
         id="stop2858"
         style="stop-color:#3c44dc"
         offset="0" /><stop
         id="stop2860"
         style="stop-color:#0d1f6a"
         offset="1" /></linearGradient><radialGradient
       id="radialGradient1498"
       gradientUnits="userSpaceOnUse"
       cy="7.0983"
       cx="-15.475"
       gradientTransform="matrix(-0.1316,1.117,-1.0576,-0.12462,33.357,39.585)"
       r="17.1"
       inkscape:collect="always"><stop
         id="stop3632"
         style="stop-color:#d2d0f3"
         offset="0" /><stop
         id="stop3634"
         style="stop-color:#1c3db8"
         offset="1" /></radialGradient><linearGradient
       id="linearGradient1503"
       y2="48.499001"
       gradientUnits="userSpaceOnUse"
       x2="1.7526"
       gradientTransform="rotate(90,13,43.438)"
       y1="16.375999"
       x1="1.6305"
       inkscape:collect="always"><stop
         id="stop3704"
         style="stop-color:#ced1f2"
         offset="0" /><stop
         id="stop3706"
         style="stop-color:#1d42c9;stop-opacity:0"
         offset="1" /></linearGradient><linearGradient
       inkscape:collect="always"
       xlink:href="#linearGradient4268"
       id="linearGradient4274"
       x1="110"
       y1="232.3622"
       x2="110"
       y2="194.3622"
       gradientUnits="userSpaceOnUse"
       gradientTransform="rotate(-11.755228,110,212.36219)" /><linearGradient
       inkscape:collect="always"
       id="linearGradient4268"><stop
         style="stop-color:#ffce00;stop-opacity:1"
         offset="0"
         id="stop4270" /><stop
         style="stop-color:#fff0ae;stop-opacity:1"
         offset="1"
         id="stop4272" /></linearGradient><filter
       inkscape:collect="always"
       style="color-interpolation-filters:sRGB"
       id="filter4574"
       x="-0.11413921"
       width="1.2282784"
       y="-0.42555357"
       height="1.8511071"
       inkscape:label="filter4574"><feGaussianBlur
         inkscape:collect="always"
         stdDeviation="3.3445874"
         id="feGaussianBlur4576" /></filter><clipPath
       clipPathUnits="userSpaceOnUse"
       id="clipPath4362"><path
         style="fill:url(#linearGradient4366);fill-opacity:1;fill-rule:evenodd;stroke:none;stroke-width:1px;stroke-linecap:butt;stroke-linejoin:round;stroke-opacity:1"
         d="m 140,231.3622 v -35 c 0,-1 -1,-2 -2,-2 H 99 c 0,-1 -1,-2 -2,-2 H 82 c -1,0 -2,1 -2,2 v 37 c 0,0.47141 0.528597,1 1,1 h 58 c 0.4714,0 1,-0.52859 1,-1 z"
         id="path4364"
         inkscape:connector-curvature="0"
         sodipodi:nodetypes="ccccccccccc" /></clipPath><filter
       inkscape:collect="always"
       style="color-interpolation-filters:sRGB"
       id="filter4334"
       x="-0.058333333"
       width="1.1166667"
       y="-0.0875"
       height="1.175"><feGaussianBlur
         inkscape:collect="always"
         stdDeviation="1.25"
         id="feGaussianBlur4336" /></filter><clipPath
       clipPathUnits="userSpaceOnUse"
       id="clipPath4234"><path
         style="fill:url(#linearGradient4238);fill-opacity:1;fill-rule:evenodd;stroke:none;stroke-width:1px;stroke-linecap:butt;stroke-linejoin:round;stroke-opacity:1"
         d="m 143.2417,224.85178 -7.13059,-34.26594 c -0.20373,-0.97903 -1.38649,-1.75433 -2.36552,-1.55059 l -38.182045,7.94551 c -0.203731,-0.97903 -1.386489,-1.75432 -2.365516,-1.55059 l -14.685403,3.05596 c -0.979027,0.20373 -1.754323,1.38649 -1.550592,2.36552 l 7.53805,36.22399 c 0.09604,0.46153 0.721242,0.87134 1.182758,0.7753 l 56.783558,-11.8164 c 0.46151,-0.096 0.87134,-0.72124 0.7753,-1.18276 z"
         id="path4236"
         inkscape:connector-curvature="0"
         sodipodi:nodetypes="ccccccccccc" /></clipPath><filter
       inkscape:collect="always"
       style="color-interpolation-filters:sRGB"
       id="filter4272"
       x="-0.011889001"
       width="1.0237163"
       y="-0.021991753"
       height="1.0400848"><feGaussianBlur
         inkscape:collect="always"
         stdDeviation="0.25540414"
         id="feGaussianBlur4274" /></filter><clipPath
       clipPathUnits="userSpaceOnUse"
       id="clipPath4228"><path
         style="fill:url(#linearGradient4232);fill-opacity:1;fill-rule:evenodd;stroke:none;stroke-width:1px;stroke-linecap:butt;stroke-linejoin:round;stroke-opacity:1"
         d="m 143.2417,224.85178 -7.13059,-34.26594 c -0.20373,-0.97903 -1.38649,-1.75433 -2.36552,-1.55059 l -38.182045,7.94551 c -0.203731,-0.97903 -1.386489,-1.75432 -2.365516,-1.55059 l -14.685403,3.05596 c -0.979027,0.20373 -1.754323,1.38649 -1.550592,2.36552 l 7.53805,36.22399 c 0.09604,0.46153 0.721242,0.87134 1.182758,0.7753 l 56.783558,-11.8164 c 0.46151,-0.096 0.87134,-0.72124 0.7753,-1.18276 z"
         id="path4230"
         inkscape:connector-curvature="0"
         sodipodi:nodetypes="ccccccccccc" /></clipPath><filter
       inkscape:collect="always"
       style="color-interpolation-filters:sRGB"
       id="filter4284"
       x="-0.021284288"
       width="1.0426353"
       y="-0.03445615"
       height="1.0726975"><feGaussianBlur
         inkscape:collect="always"
         stdDeviation="0.51653569"
         id="feGaussianBlur4286" /></filter><clipPath
       clipPathUnits="userSpaceOnUse"
       id="clipPath4775"><path
         transform="rotate(-11.755228,59.937492,698.6652)"
         style="fill:#000000;fill-opacity:1;fill-rule:evenodd;stroke:none;stroke-width:1px;stroke-linecap:butt;stroke-linejoin:round;stroke-opacity:1"
         d="m 140,231.3622 v -35 c 0,-1 -1,-2 -2,-2 H 99 c 0,-1 -1,-2 -2,-2 H 82 c -1,0 -2,1 -2,2 v 37 c 0,0.47141 0.5286,1 1,1 h 58 c 0.4714,0 1,-0.52859 1,-1 z"
         id="path4777"
         inkscape:connector-curvature="0"
         sodipodi:nodetypes="ccccccccccc"
         clip-path="url(#clipPath4362-4)" /></clipPath><filter
       inkscape:collect="always"
       style="color-interpolation-filters:sRGB"
       id="filter4439-4"
       x="-0.090712136"
       width="1.1814243"
       y="-0.17721745"
       height="1.3544349"><feGaussianBlur
         inkscape:collect="always"
         stdDeviation="2.2789067"
         id="feGaussianBlur4441-26" /></filter><filter
       y="0"
       height="1"
       x="0"
       width="1"
       inkscape:menu-tooltip="Aquarelle paper effect which can be used for pictures as for objects"
       inkscape:menu="Textures"
       inkscape:label="Rough Paper"
       style="color-interpolation-filters:sRGB"
       id="filter4422"><feTurbulence
         type="fractalNoise"
         baseFrequency="0.034999999999999996"
         numOctaves="4"
         seed="6"
         result="result4"
         id="feTurbulence4424" /><feDisplacementMap
         in="SourceGraphic"
         in2="result4"
         yChannelSelector="G"
         xChannelSelector="R"
         scale="6"
         result="result3"
         id="feDisplacementMap4426" /><feDiffuseLighting
         lighting-color="#e9e6d7"
         diffuseConstant="1"
         surfaceScale="2"
         result="result1"
         in="result4"
         id="feDiffuseLighting4428"><feDistantLight
           azimuth="306"
           elevation="50"
           id="feDistantLight4430" /></feDiffuseLighting><feComposite
         operator="in"
         in="result3"
         in2="result1"
         result="result2"
         id="feComposite4432" /><feComposite
         in2="result1"
         result="result5"
         operator="arithmetic"
         k1="1.7"
         id="feComposite4434"
         k2="0"
         k3="0"
         k4="0" /><feBlend
         in="result5"
         in2="result3"
         mode="normal"
         id="feBlend4436" /></filter><mask
       maskUnits="userSpaceOnUse"
       id="mask4767"><path
         style="fill:#ffffff;fill-opacity:1;fill-rule:evenodd;stroke:none;stroke-width:0.35;stroke-linecap:butt;stroke-linejoin:round;stroke-miterlimit:4;stroke-dasharray:none;stroke-opacity:1;filter:url(#filter4422-5)"
         d="m 135.11825,225.08332 -3.07258,-30.01581 -57.20173,11.90318 3.54291,29.91794 z"
         id="path4769"
         inkscape:connector-curvature="0"
         sodipodi:nodetypes="ccccc" /></mask><filter
       y="0"
       height="1"
       x="0"
       width="1"
       inkscape:menu-tooltip="Aquarelle paper effect which can be used for pictures as for objects"
       inkscape:menu="Textures"
       inkscape:label="Rough Paper"
       style="color-interpolation-filters:sRGB"
       id="filter4422-5"><feTurbulence
         type="fractalNoise"
         baseFrequency="0.034999999999999996"
         numOctaves="4"
         seed="6"
         result="result4"
         id="feTurbulence4424-7" /><feDisplacementMap
         in="SourceGraphic"
         in2="result4"
         yChannelSelector="G"
         xChannelSelector="R"
         scale="6"
         result="result3"
         id="feDisplacementMap4426-8" /><feDiffuseLighting
         lighting-color="#e9e6d7"
         diffuseConstant="1"
         surfaceScale="2"
         result="result1"
         in="result4"
         id="feDiffuseLighting4428-4"><feDistantLight
           azimuth="306"
           elevation="50"
           id="feDistantLight4430-6" /></feDiffuseLighting><feComposite
         operator="in"
         in="result3"
         in2="result1"
         result="result2"
         id="feComposite4432-4" /><feComposite
         k4="0"
         k3="0"
         k2="0"
         in2="result1"
         result="result5"
         operator="arithmetic"
         k1="1.7"
         id="feComposite4434-4" /><feBlend
         in="result5"
         in2="result3"
         mode="normal"
         id="feBlend4436-7" /></filter><filter
       inkscape:collect="always"
       style="color-interpolation-filters:sRGB"
       id="filter4439-4-5"
       x="-0.090712136"
       width="1.1814243"
       y="-0.17721745"
       height="1.3544349"><feGaussianBlur
         inkscape:collect="always"
         stdDeviation="2.2789067"
         id="feGaussianBlur4441-26-0" /></filter><linearGradient
       gradientTransform="rotate(-11.755228,110.00002,212.36219)"
       inkscape:collect="always"
       xlink:href="#linearGradient4268"
       id="linearGradient4274-5"
       x1="110"
       y1="232.3622"
       x2="110"
       y2="194.3622"
       gradientUnits="userSpaceOnUse" /><clipPath
       clipPathUnits="userSpaceOnUse"
       id="clipPath4258"><path
         style="fill:url(#linearGradient4262);fill-opacity:1;fill-rule:evenodd;stroke:none;stroke-width:0.35;stroke-linecap:butt;stroke-linejoin:round;stroke-miterlimit:4;stroke-dasharray:none;stroke-opacity:1"
         d="m 163.2417,244.85178 0.86941,-26.26594 c -0.20373,-0.97903 -1.38649,-1.75433 -2.36552,-1.55059 l -56.78356,11.8164 -0.46195,28.22399 c 0.096,0.46153 0.72125,0.87134 1.18276,0.7753 l 56.78356,-11.8164 c 0.46151,-0.096 0.87134,-0.72124 0.7753,-1.18276 z"
         id="path4260"
         inkscape:connector-curvature="0"
         sodipodi:nodetypes="cccccccc" /></clipPath><filter
       inkscape:collect="always"
       style="color-interpolation-filters:sRGB"
       id="filter4280"
       x="-0.020903995"
       width="1.0418208"
       y="-0.036400204"
       height="1.0787594"><feGaussianBlur
         inkscape:collect="always"
         stdDeviation="0.43884546"
         id="feGaussianBlur4282" /></filter><clipPath
       clipPathUnits="userSpaceOnUse"
       id="clipPath4711"><path
         style="fill:url(#linearGradient4715);fill-opacity:1;fill-rule:evenodd;stroke:none;stroke-width:0.35;stroke-linecap:butt;stroke-linejoin:round;stroke-miterlimit:4;stroke-dasharray:none;stroke-opacity:1"
         d="m 143.2417,224.85178 0.86941,-26.26594 c -0.20373,-0.97903 -1.38649,-1.75433 -2.36552,-1.55059 l -56.78356,11.8164 -0.46195,28.22399 c 0.096,0.46153 0.72125,0.87134 1.18276,0.7753 l 56.78356,-11.8164 c 0.46151,-0.096 0.87134,-0.72124 0.7753,-1.18276 z"
         id="path4713"
         inkscape:connector-curvature="0"
         sodipodi:nodetypes="cccccccc" /></clipPath><filter
       inkscape:collect="always"
       style="color-interpolation-filters:sRGB"
       id="filter4268"
       x="-0.0094277537"
       width="1.0212114"
       y="-0.025042251"
       height="1.0439935"
       inkscape:label="filter4268"><feGaussianBlur
         inkscape:collect="always"
         stdDeviation="0.21749585"
         id="feGaussianBlur4270" /></filter></defs><g
     inkscape:label="Layer 1"
     inkscape:groupmode="layer"
     id="layer1"><g
       id="g1098"
       transform="matrix(0.72194093,0,0,0.72194093,56.202518,-18.22636)"><g
         id="g2848"
         transform="translate(0,132.29169)"><path
           style="fill:#000000;stroke-width:0.788109"
           d="m 93.08823,251.25879 c -1.256,-0.50614 -1.85021,-1.60552 -2.20938,-4.08762 -0.27021,-1.86739 -0.38369,-24.26239 -0.25218,-49.76667 l 0.23911,-46.37141 1.86055,-1.5062 c 1.77059,-1.43335 3.58886,-1.50619 37.6015,-1.50619 h 35.74094 l 1.60691,1.72482 c 1.56872,1.68382 1.60692,2.58403 1.60692,37.86505 v 36.14022 l -1.93445,1.93444 -1.93445,1.93445 -21.51179,-0.0251 c -16.63825,-0.0194 -21.82424,-0.26226 -22.89097,-1.07202 -1.09611,-0.83207 -1.37919,-2.25041 -1.37919,-6.91029 0,-3.50957 0.37966,-6.243 0.94573,-6.80907 0.66454,-0.66454 5.10571,-0.94573 14.93699,-0.94573 8.93907,0 14.71609,-0.33027 15.9986,-0.91462 l 2.00736,-0.91461 v -22.30686 c 0,-21.24756 -0.0724,-22.34561 -1.52441,-23.12271 -0.94084,-0.50353 -9.52216,-0.81584 -22.41641,-0.81584 -20.69579,0 -20.90353,0.0165 -22.11886,1.75158 -1.07237,1.53103 -1.22685,6.93368 -1.22685,42.90724 v 41.15566 l -1.75158,1.22686 c -1.90891,1.33705 -8.5281,1.58952 -11.39409,0.43458 z m -28.1142,-24.63911 c -1.25637,-0.91868 -1.36503,-3.37012 -1.33619,-30.14516 0.0238,-22.0587 -0.21205,-29.62422 -0.96984,-31.11543 -0.86492,-1.70203 -1.61314,-2.00238 -5.49586,-2.2061 -3.55886,-0.18674 -4.74439,-0.59243 -5.6943,-1.94861 -1.58246,-2.25929 -1.56606,-9.15742 0.0272,-11.4321 1.16838,-1.66809 1.75236,-1.75158 12.25151,-1.75158 10.65438,0 11.08963,0.0649 12.95911,1.93445 l 1.93445,1.93444 v 36.56074 c 0,42.16941 0.58175,39.16935 -7.59549,39.16935 -2.59214,0 -5.3284,-0.45 -6.08057,-1 z m 119.21434,-0.0102 c -2.9839,-2.29096 -3.08414,-3.5768 -3.08414,-39.56141 v -35.15848 l 1.93446,-1.93444 1.93444,-1.93445 h 35.32536 c 30.69668,0 35.55486,0.16075 37.07693,1.22685 1.73445,1.21485 1.75158,1.42938 1.75158,21.92967 0,20.62141 -0.007,20.70955 -1.82404,22.41641 -1.77975,1.67199 -2.34037,1.71359 -23.09158,1.71359 -15.49062,0 -21.52444,-0.25689 -22.21328,-0.94573 -0.562,-0.56199 -0.94573,-3.26887 -0.94573,-6.6712 0,-4.89766 0.22539,-5.84608 1.55889,-6.55976 0.89057,-0.47661 7.63161,-0.91084 15.7238,-1.01286 9.36681,-0.11808 14.47028,-0.4843 15.06644,-1.08114 0.53173,-0.53233 0.90155,-3.58542 0.90155,-7.44272 0,-5.36985 -0.25192,-6.72436 -1.40785,-7.5696 -1.07571,-0.78658 -6.39243,-1.02945 -22.53616,-1.02945 -20.0775,0 -21.2067,0.0784 -22.70452,1.57622 -1.49926,1.49926 -1.57622,2.62703 -1.57622,23.09858 0,17.3376 0.21738,21.81981 1.11799,23.05218 1.06397,1.45589 2.57801,1.54886 31.32733,1.92388 l 30.20933,0.39405 0.23343,6.28882 c 0.19441,5.2373 0.005,6.45622 -1.13576,7.29001 -1.94085,1.41918 -71.79321,1.41063 -73.64225,-0.009 z m 87.35134,0.15897 c -1.11283,-0.64817 -1.37919,-1.90683 -1.37919,-6.51734 0,-3.39344 0.38409,-6.09812 0.94573,-6.65976 0.52016,-0.52015 2.84869,-0.94573 5.17452,-0.94573 2.32584,0 4.89718,-0.35772 5.7141,-0.79492 2.3957,-1.28214 17.32568,-21.95751 17.32568,-23.99298 0,-0.52876 -2.41598,-4.47732 -5.36885,-8.77459 -11.42893,-16.6324 -10.69895,-15.94179 -16.94704,-16.03297 -6.22026,-0.0908 -6.84414,-0.76647 -6.84414,-7.41253 0,-3.40233 0.38374,-6.10921 0.94573,-6.6712 1.04851,-1.04851 18.52634,-1.3479 19.99954,-0.34258 0.46667,0.31845 3.31178,4.1255 6.32246,8.4601 11.06227,15.9268 10.95165,15.80107 13.12285,14.91796 0.54182,-0.22039 3.46768,-3.97249 6.50189,-8.33802 3.03422,-4.36553 6.87687,-9.67114 8.53922,-11.79025 l 3.02244,-3.85294 h 9.3721 c 9.13913,0 9.40434,0.0492 10.66924,1.97969 1.47943,2.2579 1.24385,10.01685 -0.35262,11.61332 -0.51028,0.51028 -3.48927,1.16257 -6.61996,1.44954 -4.7477,0.43517 -5.91849,0.83238 -7.05621,2.39393 -9.1282,12.52876 -14.76853,21.07721 -14.75527,22.36301 0.009,0.86692 1.42173,3.52679 3.13952,5.91082 1.71779,2.38403 5.22493,7.39137 7.79366,11.12742 2.56873,3.73606 5.25344,7.01656 5.96604,7.29001 0.7126,0.27345 3.38636,0.49718 5.94166,0.49718 5.98715,0 7.42486,1.7341 6.88045,8.29892 -0.50845,6.13131 -1.39631,6.61931 -12.09902,6.65008 -10.02537,0.0289 -9.713,0.21119 -16.15571,-9.43224 -3.24557,-4.85798 -7.3781,-10.56395 -9.84603,-13.59488 -0.61765,-0.75855 -1.60821,-1.37919 -2.20124,-1.37919 -0.59303,0 -4.70269,5.14477 -9.13256,11.43281 -4.42988,6.28805 -8.71259,11.78511 -9.51713,12.21569 -1.91402,1.02435 -17.32045,0.96921 -19.10186,-0.0683 z"
           id="path179" /><path
           id="path2824"
           style="fill:#adc80c;fill-opacity:1;stroke-width:0.278904"
           d="m 30.419,155.55291 v 1.50937 1.50937 1.50938 c 0,1.36163 0.67237,1.50937 1.47463,1.50937 h 1.47462 1.47464 1.47462 1.47463 1.47463 1.47462 c 1.87086,0 1.47463,-1.3478 1.47463,-1.50955 v -1.50954 -1.50956 -1.50954 -1.50954 -1.50955 -1.50955 c 0,-1.42111 -1.16696,-1.50955 -1.47463,-1.50955 h -1.47462 -1.47463 -1.47463 -1.47462 -1.47464 -1.47462 c -1.47517,0 -1.47463,0.57614 -1.47463,1.50972 v 1.50972 1.50972 z"
           sodipodi:nodetypes="cccsscccccsscccccsscccccssccc" /><path
           id="path2827"
           style="fill:#adc80c;fill-opacity:1;stroke-width:0.278904"
           d="m 361.99767,154.81132 v 1.50937 1.50937 1.50938 c 0,1.36163 0.67237,1.50937 1.47463,1.50937 h 1.47462 1.47464 1.47462 1.47463 1.47463 1.47462 c 1.87086,0 1.47463,-1.3478 1.47463,-1.50955 v -1.50954 -1.50956 -1.50954 -1.50954 -1.50955 -1.50955 c 0,-1.42111 -1.16696,-1.50955 -1.47463,-1.50955 h -1.47462 -1.47463 -1.47463 -1.47462 -1.47464 -1.47462 c -1.47517,0 -1.47463,0.57614 -1.47463,1.50972 v 1.50972 1.50972 z"
           sodipodi:nodetypes="cccsscccccsscccccsscccccssccc" /></g><g
         id="g418"
         transform="matrix(0.43773402,0,0,-0.43773402,87.940091,264.43479)"><g
           id="g340" /><g
           id="g348"><g
             id="g346"
             clip-path="url(#clipPath210)"><g
               id="g344"
               clip-path="url(#clipPath216)"><path
                 d="M -1,513 H 513 V -1 H -1 Z"
                 style="fill:#f6b102;fill-opacity:1;fill-rule:nonzero;stroke:none"
                 id="path342" /></g></g></g><g
           id="g356"><g
             id="g354"
             clip-path="url(#clipPath226)"><g
               id="g352"
               clip-path="url(#clipPath232)"><path
                 d="M 252.6875,363 H 425.7089 V 161.0939 H 252.6875 Z"
                 style="fill:#fdebbf;fill-opacity:1;fill-rule:nonzero;stroke:none"
                 id="path350" /></g></g></g><g
           id="g364"><g
             id="g362"
             clip-path="url(#clipPath242)"><g
               id="g360"
               clip-path="url(#clipPath248)"><path
                 d="M 82.51535,363 H 311.6214 V 161.0939 H 82.51535 Z"
                 style="fill:#ffffff;fill-opacity:1;fill-rule:nonzero;stroke:none"
                 id="path358" /></g></g></g><g
           id="g366" /><g
           id="g374"><g
             id="g372"
             clip-path="url(#clipPath210)"><g
               id="g370"
               clip-path="url(#clipPath216)"><path
                 d="M -1,513 H 513 V -1 H -1 Z"
                 style="fill:#f6b102;fill-opacity:1;fill-rule:nonzero;stroke:none"
                 id="path368" /></g></g></g><g
           id="g382"><g
             id="g380"
             clip-path="url(#clipPath226)"><g
               id="g378"
               clip-path="url(#clipPath232)"><path
                 d="M 252.6875,363 H 425.7089 V 161.0939 H 252.6875 Z"
                 style="fill:#fdebbf;fill-opacity:1;fill-rule:nonzero;stroke:none"
                 id="path376" /></g></g></g><g
           id="g390"><g
             id="g388"
             clip-path="url(#clipPath242)"><g
               id="g386"
               clip-path="url(#clipPath248)"><path
                 d="M 82.51535,363 H 311.6214 V 161.0939 H 82.51535 Z"
                 style="fill:#ffffff;fill-opacity:1;fill-rule:nonzero;stroke:none"
                 id="path384" /></g></g></g></g></g><g
       id="g1941"
       transform="matrix(0.26458333,0,0,0.26458333,78.49726,264.05327)"><path
         id="path1943"
         style="fill:#000000"
         d="M 106.18,0 C 83.803,2.504 2.43,39.697 0.05,231.48 -2.4468,433.5 83.803,476 106.42,475.55 V 342.11 c -18.617,0 -22.363,-20.27 -26.617,-62.11 -2.815,-27.68 -3.636,-61.94 0,-96 2.552,-23.89 7,-47.22 26.497,-47.22 z" /><path
         id="path1945"
         style="fill:#000000"
         d="m 154.43,475.78 c 8.62,0 14.81,-7.03 14.81,-14.9 l 0.06,-0.06 c 0,0 -0.06,-104 -0.06,-104.07 0,-8.25 -6.69,-14.75 -14.81,-14.75 h -37.8 v 133.78 c 0,0 37.71,0.06 37.74,0.03 z" /><path
         id="path1947"
         style="fill:#000000"
         d="m 154.43,136.78 c 8.62,0 14.81,-7.03 14.81,-14.9 l 0.06,-0.06 c 0,0 -0.06,-107 -0.06,-107.07 C 169.24,6.504 162.55,0 154.43,0 h -37.8 v 136.78 c 0,0 37.71,0.06 37.74,0.03 z" /></g><g
       id="g2471"
       transform="matrix(-1.6628914,0,0,-1.6628914,208.85041,378.95412)"><path
         id="path2125"
         sodipodi:nodetypes="ccccsccccsccccc"
         style="fill:url(#linearGradient1507)"
         d="m 50,22 c 0,-1 -1,-1 -1,-1 H 32 c -0.049,-1 0,-5 0,-5 -0.009,-0.447 -0.109,-0.846 -0.523,-1.016 -0.414,-0.17 -0.889,-0.077 -1.209,0.235 l -16,16 c -0.422,0.435 -0.422,1.127 0,1.562 l 16,16 c 0.32,0.312 0.795,0.405 1.209,0.235 C 31.891,48.846 31.991,48.447 32,48 v -5 h 17.049 c 0,0 1,0 1,-1 C 50.049,36 50,28 50,22 Z" /><path
         id="path3636"
         style="fill:url(#radialGradient1498)"
         transform="rotate(90,32,32)"
         d="m 41.781,15.156 c -5.903,0.002 -13.643,0.061 -19.562,0.063 V 32 c 10e-4,0.649 -0.508,1.186 -1.157,1.219 -1.093,0.053 -4.057,0.008 -4.624,0 L 32,48.781 47.531,33.219 H 43 c -0.673,0 -1.219,-0.546 -1.219,-1.219 z" /><path
         id="path3696"
         sodipodi:nodetypes="cscccc"
         style="fill:url(#linearGradient1503)"
         d="m 41.969,23.219 c -4.118,0 -9.206,0.037 -9.75,0 C 29,23 31,19 29,20 27,21 17,32 17,32 L 28.062,42.938 C 31,35 35.276,27.638 41.969,23.219 Z" /></g><g
       id="g682"
       transform="matrix(2.3057514,0,0,2.3057514,15.881191,-171.87023)"><path
         style="fill:url(#linearGradient4274);fill-opacity:1;fill-rule:evenodd;stroke:none;stroke-width:1px;stroke-linecap:butt;stroke-linejoin:round;stroke-opacity:1"
         d="m 143.2417,224.85178 -7.13059,-34.26594 c -0.20373,-0.97903 -1.38649,-1.75433 -2.36552,-1.55059 l -38.182045,7.94551 c -0.203731,-0.97903 -1.386489,-1.75432 -2.365516,-1.55059 l -14.685403,3.05596 c -0.979027,0.20373 -1.754323,1.38649 -1.550592,2.36552 l 7.53805,36.22399 c 0.09604,0.46153 0.721242,0.87134 1.182758,0.7753 l 56.783558,-11.8164 c 0.46151,-0.096 0.87134,-0.72124 0.7753,-1.18276 z"
         id="path4140"
         inkscape:connector-curvature="0"
         sodipodi:nodetypes="ccccccccccc" /><path
         style="fill:#808080;fill-opacity:1;fill-rule:evenodd;stroke:none;stroke-width:1px;stroke-linecap:butt;stroke-linejoin:round;stroke-opacity:1;filter:url(#filter4574)"
         d="m 141.2417,222.85178 -11.13059,-4.26594 c -0.20373,-0.97903 -1.38649,-1.75433 -2.36552,-1.55059 l -38.182045,7.94551 c -0.203731,-0.97903 -1.386489,-1.75432 -2.365516,-1.55059 l -14.685403,3.05596 c -0.979027,0.20373 -1.754323,1.38649 -1.550592,2.36552 l 11.53805,6.22399 c 0.09604,0.46153 0.721242,0.87134 1.182758,0.7753 l 56.783558,-11.8164 c 0.46151,-0.096 0.87134,-0.72124 0.7753,-1.18276 z"
         id="path4140-84"
         inkscape:connector-curvature="0"
         sodipodi:nodetypes="ccccccccccc" /><path
         style="fill:none;fill-opacity:1;fill-rule:evenodd;stroke:#ececec;stroke-width:1px;stroke-linecap:butt;stroke-linejoin:round;stroke-opacity:1;filter:url(#filter4334)"
         d="m 140,231.3622 v -35 c 0,-1 -1,-2 -2,-2 H 99 c 0,-1 -1,-2 -2,-2 H 82 c -1,0 -2,1 -2,2 v 37 c 0,0.47141 0.5286,1 1,1 h 58 c 0.4714,0 1,-0.52859 1,-1 z"
         id="path4140-6"
         inkscape:connector-curvature="0"
         sodipodi:nodetypes="ccccccccccc"
         clip-path="url(#clipPath4362)"
         transform="rotate(-11.755228,110,212.36219)" /><path
         style="fill:none;fill-opacity:1;fill-rule:evenodd;stroke:#ffffff;stroke-width:0.35;stroke-linecap:butt;stroke-linejoin:round;stroke-miterlimit:4;stroke-dasharray:none;stroke-opacity:1;filter:url(#filter4272)"
         d="m 143.2417,224.85178 -7.13059,-34.26594 c -0.20373,-0.97903 -1.38649,-1.75433 -2.36552,-1.55059 l -38.18205,7.94551 c -0.20373,-0.97903 -1.38648,-1.75432 -2.36551,-1.55059 l -14.685404,3.05596 c -0.979027,0.20373 -1.754323,1.38649 -1.550592,2.36552"
         id="path4140-2"
         inkscape:connector-curvature="0"
         sodipodi:nodetypes="ccccccc"
         clip-path="url(#clipPath4234)" /><path
         style="fill:none;fill-opacity:1;fill-rule:evenodd;stroke:#808080;stroke-width:0.35;stroke-linecap:butt;stroke-linejoin:round;stroke-miterlimit:4;stroke-dasharray:none;stroke-opacity:1;filter:url(#filter4284)"
         d="m 76.962034,200.85165 7.53805,36.22399 c 0.09604,0.46153 0.721242,0.87134 1.182758,0.7753 l 56.783558,-11.8164 c 0.46151,-0.096 0.87134,-0.72124 0.7753,-1.18276"
         id="path4140-80"
         inkscape:connector-curvature="0"
         sodipodi:nodetypes="ccccc"
         clip-path="url(#clipPath4228)" /><path
         style="fill:#000000;fill-opacity:1;fill-rule:evenodd;stroke:none;stroke-width:1px;stroke-linecap:butt;stroke-linejoin:round;stroke-opacity:1;filter:url(#filter4439-4)"
         d="m 43.2417,224.85178 -1.13059,-16.26594 c -0.20373,-0.97903 -1.38649,-1.75433 -2.36552,-1.55059 l -56.78356,11.8164 1.53805,18.22399 c 0.096,0.46153 0.72125,0.87134 1.18276,0.7753 l 56.78356,-11.8164 c 0.46151,-0.096 0.87134,-0.72124 0.7753,-1.18276 z"
         id="path4140-8-5-9"
         inkscape:connector-curvature="0"
         sodipodi:nodetypes="cccccccc"
         clip-path="url(#clipPath4775)"
         mask="none"
         transform="translate(100)" /><path
         style="fill:#ffffff;fill-opacity:1;fill-rule:evenodd;stroke:none;stroke-width:0.35;stroke-linecap:butt;stroke-linejoin:round;stroke-miterlimit:4;stroke-dasharray:none;stroke-opacity:1;filter:url(#filter4422)"
         d="m 135.11825,225.08332 -3.07258,-30.01581 -57.20173,11.90318 3.54291,29.91794 z"
         id="path4140-8-0"
         inkscape:connector-curvature="0"
         sodipodi:nodetypes="ccccc" /><path
         style="fill:#000000;fill-opacity:1;fill-rule:evenodd;stroke:none;stroke-width:1px;stroke-linecap:butt;stroke-linejoin:round;stroke-opacity:1;filter:url(#filter4439-4-5)"
         d="m 143.2417,224.85178 -1.13059,-16.26594 c -0.20373,-0.97903 -1.38649,-1.75433 -2.36552,-1.55059 l -56.78356,11.8164 1.53805,18.22399 c 0.096,0.46153 0.72125,0.87134 1.18276,0.7753 l 56.78356,-11.8164 c 0.46151,-0.096 0.87134,-0.72124 0.7753,-1.18276 z"
         id="path4140-8-5-9-6"
         inkscape:connector-curvature="0"
         sodipodi:nodetypes="cccccccc"
         clip-path="none"
         mask="url(#mask4767)" /><path
         style="fill:url(#linearGradient4274-5);fill-opacity:1;fill-rule:evenodd;stroke:none;stroke-width:0.35;stroke-linecap:butt;stroke-linejoin:round;stroke-miterlimit:4;stroke-dasharray:none;stroke-opacity:1"
         d="m 143.2417,224.85178 0.86941,-26.26594 c -0.20373,-0.97903 -1.38649,-1.75433 -2.36552,-1.55059 l -56.78356,11.8164 -0.46195,28.22399 c 0.096,0.46153 0.72125,0.87134 1.18276,0.7753 l 56.78356,-11.8164 c 0.46151,-0.096 0.87134,-0.72124 0.7753,-1.18276 z"
         id="path4140-8"
         inkscape:connector-curvature="0"
         sodipodi:nodetypes="cccccccc" /><path
         style="fill:#decd87;fill-opacity:1;fill-rule:evenodd;stroke:none;stroke-width:0.35;stroke-linecap:butt;stroke-linejoin:round;stroke-miterlimit:4;stroke-dasharray:none;stroke-opacity:1"
         d="m 143.2417,224.85178 0.2709,-8.18428 -58.879029,12.25222 -0.133491,8.15592 c 0.096,0.46153 0.72125,0.87134 1.18276,0.7753 l 56.78356,-11.8164 c 0.46151,-0.096 0.87134,-0.72124 0.7753,-1.18276 z"
         id="path4140-8-93"
         inkscape:connector-curvature="0"
         sodipodi:nodetypes="ccccccc" /><path
         style="fill:none;fill-opacity:1;fill-rule:evenodd;stroke:#808080;stroke-width:0.35;stroke-linecap:butt;stroke-linejoin:round;stroke-miterlimit:4;stroke-dasharray:none;stroke-opacity:1;filter:url(#filter4280)"
         d="m 104.96203,228.85165 -0.46195,28.22399 c 0.096,0.46153 0.72125,0.87134 1.18276,0.7753 l 56.78356,-11.8164 c 0.46151,-0.096 0.87134,-0.72124 0.7753,-1.18276"
         id="path4140-8-9"
         inkscape:connector-curvature="0"
         sodipodi:nodetypes="ccccc"
         clip-path="url(#clipPath4258)"
         transform="translate(-20,-20)" /><path
         style="fill:none;fill-opacity:1;fill-rule:evenodd;stroke:#ffffff;stroke-width:0.35;stroke-linecap:butt;stroke-linejoin:round;stroke-miterlimit:4;stroke-dasharray:none;stroke-opacity:1;filter:url(#filter4268)"
         d="m 143.2417,224.85178 0.86941,-26.26594 c -0.20373,-0.97903 -1.38649,-1.75433 -2.36552,-1.55059 l -56.78356,11.8164"
         id="path4140-8-7"
         inkscape:connector-curvature="0"
         sodipodi:nodetypes="cccc"
         clip-path="url(#clipPath4711)" /></g></g></svg>
