<?xml version="1.0" encoding="UTF-8" standalone="no"?>
<!-- Created with Inkscape (http://www.inkscape.org/) -->

<svg
   width="400mm"
   height="400mm"
   viewBox="0 0 400 400"
   version="1.1"
   id="svg5"
   xml:space="preserve"
   inkscape:version="1.2.2 (b0a8486541, 2022-12-01)"
   sodipodi:docname="abraflexi-ipex.svg"
   xmlns:inkscape="http://www.inkscape.org/namespaces/inkscape"
   xmlns:sodipodi="http://sodipodi.sourceforge.net/DTD/sodipodi-0.dtd"
   xmlns="http://www.w3.org/2000/svg"
   xmlns:svg="http://www.w3.org/2000/svg"><sodipodi:namedview
     id="namedview7"
     pagecolor="#ffffff"
     bordercolor="#000000"
     borderopacity="0.25"
     inkscape:showpageshadow="2"
     inkscape:pageopacity="0.0"
     inkscape:pagecheckerboard="0"
     inkscape:deskcolor="#d1d1d1"
     inkscape:document-units="mm"
     showgrid="false"
     inkscape:zoom="0.4204826"
     inkscape:cx="180.7447"
     inkscape:cy="602.87869"
     inkscape:window-width="1920"
     inkscape:window-height="1120"
     inkscape:window-x="0"
     inkscape:window-y="0"
     inkscape:window-maximized="1"
     inkscape:current-layer="layer1" /><defs
     id="defs2"><clipPath
       clipPathUnits="userSpaceOnUse"
       id="clipPath210"><path
         d="M 64.09713,512 H 447.9029 c 22.2879,0 30.3701,-2.3206 38.5182,-6.6783 8.1482,-4.3577 14.5429,-10.7524 18.9006,-18.9006 C 509.6794,478.273 512,470.1908 512,447.9029 V 64.09713 C 512,41.80916 509.6794,33.72701 505.3217,25.57886 500.964,17.43071 494.5693,11.03599 486.4211,6.678318 478.273,2.32064 470.1908,0 447.9029,0 H 64.09713 C 41.80916,0 33.72701,2.32064 25.57886,6.678318 17.43071,11.03599 11.03599,17.43071 6.678318,25.57886 2.32064,33.72701 0,41.80916 0,64.09713 V 447.9029 c 0,22.2879 2.32064,30.3701 6.678318,38.5182 4.357672,8.1482 10.752392,14.5429 18.900542,18.9006 8.14815,4.3577 16.2303,6.6783 38.51827,6.6783 z"
         clip-rule="evenodd"
         id="path208" /></clipPath><clipPath
       clipPathUnits="userSpaceOnUse"
       id="clipPath216"><path
         d="M 0,0 H 512 V 512 H 0 Z"
         id="path214" /></clipPath><clipPath
       clipPathUnits="userSpaceOnUse"
       id="clipPath226"><path
         d="M 310.6214,362 424.7089,162.0939 H 310.6961 l -57.0086,99.4988 z"
         clip-rule="evenodd"
         id="path224" /></clipPath><clipPath
       clipPathUnits="userSpaceOnUse"
       id="clipPath232"><path
         d="M 0,0 H 512 V 512 H 0 Z"
         id="path230" /></clipPath><clipPath
       clipPathUnits="userSpaceOnUse"
       id="clipPath242"><path
         d="M 197.1006,362 83.51535,162.0939 H 197.1006 L 310.6214,362 Z"
         clip-rule="evenodd"
         id="path240" /></clipPath><clipPath
       clipPathUnits="userSpaceOnUse"
       id="clipPath248"><path
         d="M 0,0 H 512 V 512 H 0 Z"
         id="path246" /></clipPath><clipPath
       clipPathUnits="userSpaceOnUse"
       id="clipPath2948"><path
         d="M 64.09713,512 H 447.9029 c 22.2879,0 30.3701,-2.3206 38.5182,-6.6783 8.1482,-4.3577 14.5429,-10.7524 18.9006,-18.9006 C 509.6794,478.273 512,470.1908 512,447.9029 V 64.09713 C 512,41.80916 509.6794,33.72701 505.3217,25.57886 500.964,17.43071 494.5693,11.03599 486.4211,6.678318 478.273,2.32064 470.1908,0 447.9029,0 H 64.09713 C 41.80916,0 33.72701,2.32064 25.57886,6.678318 17.43071,11.03599 11.03599,17.43071 6.678318,25.57886 2.32064,33.72701 0,41.80916 0,64.09713 V 447.9029 c 0,22.2879 2.32064,30.3701 6.678318,38.5182 4.357672,8.1482 10.752392,14.5429 18.900542,18.9006 8.14815,4.3577 16.2303,6.6783 38.51827,6.6783 z"
         clip-rule="evenodd"
         id="path2946" /></clipPath><clipPath
       clipPathUnits="userSpaceOnUse"
       id="clipPath2952"><path
         d="M 0,0 H 512 V 512 H 0 Z"
         id="path2950" /></clipPath><clipPath
       clipPathUnits="userSpaceOnUse"
       id="clipPath2956"><path
         d="M 310.6214,362 424.7089,162.0939 H 310.6961 l -57.0086,99.4988 z"
         clip-rule="evenodd"
         id="path2954" /></clipPath><clipPath
       clipPathUnits="userSpaceOnUse"
       id="clipPath2960"><path
         d="M 0,0 H 512 V 512 H 0 Z"
         id="path2958" /></clipPath><clipPath
       clipPathUnits="userSpaceOnUse"
       id="clipPath2964"><path
         d="M 197.1006,362 83.51535,162.0939 H 197.1006 L 310.6214,362 Z"
         clip-rule="evenodd"
         id="path2962" /></clipPath><clipPath
       clipPathUnits="userSpaceOnUse"
       id="clipPath2968"><path
         d="M 0,0 H 512 V 512 H 0 Z"
         id="path2966" /></clipPath></defs><g
     inkscape:label="Layer 1"
     inkscape:groupmode="layer"
     id="layer1"><g
       id="g2848"
       transform="translate(0,132.29169)"><path
         style="fill:#000000;stroke-width:0.788109"
         d="m 93.08823,251.25879 c -1.256,-0.50614 -1.85021,-1.60552 -2.20938,-4.08762 -0.27021,-1.86739 -0.38369,-24.26239 -0.25218,-49.76667 l 0.23911,-46.37141 1.86055,-1.5062 c 1.77059,-1.43335 3.58886,-1.50619 37.6015,-1.50619 h 35.74094 l 1.60691,1.72482 c 1.56872,1.68382 1.60692,2.58403 1.60692,37.86505 v 36.14022 l -1.93445,1.93444 -1.93445,1.93445 -21.51179,-0.0251 c -16.63825,-0.0194 -21.82424,-0.26226 -22.89097,-1.07202 -1.09611,-0.83207 -1.37919,-2.25041 -1.37919,-6.91029 0,-3.50957 0.37966,-6.243 0.94573,-6.80907 0.66454,-0.66454 5.10571,-0.94573 14.93699,-0.94573 8.93907,0 14.71609,-0.33027 15.9986,-0.91462 l 2.00736,-0.91461 v -22.30686 c 0,-21.24756 -0.0724,-22.34561 -1.52441,-23.12271 -0.94084,-0.50353 -9.52216,-0.81584 -22.41641,-0.81584 -20.69579,0 -20.90353,0.0165 -22.11886,1.75158 -1.07237,1.53103 -1.22685,6.93368 -1.22685,42.90724 v 41.15566 l -1.75158,1.22686 c -1.90891,1.33705 -8.5281,1.58952 -11.39409,0.43458 z m -28.1142,-24.63911 c -1.25637,-0.91868 -1.36503,-3.37012 -1.33619,-30.14516 0.0238,-22.0587 -0.21205,-29.62422 -0.96984,-31.11543 -0.86492,-1.70203 -1.61314,-2.00238 -5.49586,-2.2061 -3.55886,-0.18674 -4.74439,-0.59243 -5.6943,-1.94861 -1.58246,-2.25929 -1.56606,-9.15742 0.0272,-11.4321 1.16838,-1.66809 1.75236,-1.75158 12.25151,-1.75158 10.65438,0 11.08963,0.0649 12.95911,1.93445 l 1.93445,1.93444 v 36.56074 c 0,42.16941 0.58175,39.16935 -7.59549,39.16935 -2.59214,0 -5.3284,-0.45 -6.08057,-1 z m 119.21434,-0.0102 c -2.9839,-2.29096 -3.08414,-3.5768 -3.08414,-39.56141 v -35.15848 l 1.93446,-1.93444 1.93444,-1.93445 h 35.32536 c 30.69668,0 35.55486,0.16075 37.07693,1.22685 1.73445,1.21485 1.75158,1.42938 1.75158,21.92967 0,20.62141 -0.007,20.70955 -1.82404,22.41641 -1.77975,1.67199 -2.34037,1.71359 -23.09158,1.71359 -15.49062,0 -21.52444,-0.25689 -22.21328,-0.94573 -0.562,-0.56199 -0.94573,-3.26887 -0.94573,-6.6712 0,-4.89766 0.22539,-5.84608 1.55889,-6.55976 0.89057,-0.47661 7.63161,-0.91084 15.7238,-1.01286 9.36681,-0.11808 14.47028,-0.4843 15.06644,-1.08114 0.53173,-0.53233 0.90155,-3.58542 0.90155,-7.44272 0,-5.36985 -0.25192,-6.72436 -1.40785,-7.5696 -1.07571,-0.78658 -6.39243,-1.02945 -22.53616,-1.02945 -20.0775,0 -21.2067,0.0784 -22.70452,1.57622 -1.49926,1.49926 -1.57622,2.62703 -1.57622,23.09858 0,17.3376 0.21738,21.81981 1.11799,23.05218 1.06397,1.45589 2.57801,1.54886 31.32733,1.92388 l 30.20933,0.39405 0.23343,6.28882 c 0.19441,5.2373 0.005,6.45622 -1.13576,7.29001 -1.94085,1.41918 -71.79321,1.41063 -73.64225,-0.009 z m 87.35134,0.15897 c -1.11283,-0.64817 -1.37919,-1.90683 -1.37919,-6.51734 0,-3.39344 0.38409,-6.09812 0.94573,-6.65976 0.52016,-0.52015 2.84869,-0.94573 5.17452,-0.94573 2.32584,0 4.89718,-0.35772 5.7141,-0.79492 2.3957,-1.28214 17.32568,-21.95751 17.32568,-23.99298 0,-0.52876 -2.41598,-4.47732 -5.36885,-8.77459 -11.42893,-16.6324 -10.69895,-15.94179 -16.94704,-16.03297 -6.22026,-0.0908 -6.84414,-0.76647 -6.84414,-7.41253 0,-3.40233 0.38374,-6.10921 0.94573,-6.6712 1.04851,-1.04851 18.52634,-1.3479 19.99954,-0.34258 0.46667,0.31845 3.31178,4.1255 6.32246,8.4601 11.06227,15.9268 10.95165,15.80107 13.12285,14.91796 0.54182,-0.22039 3.46768,-3.97249 6.50189,-8.33802 3.03422,-4.36553 6.87687,-9.67114 8.53922,-11.79025 l 3.02244,-3.85294 h 9.3721 c 9.13913,0 9.40434,0.0492 10.66924,1.97969 1.47943,2.2579 1.24385,10.01685 -0.35262,11.61332 -0.51028,0.51028 -3.48927,1.16257 -6.61996,1.44954 -4.7477,0.43517 -5.91849,0.83238 -7.05621,2.39393 -9.1282,12.52876 -14.76853,21.07721 -14.75527,22.36301 0.009,0.86692 1.42173,3.52679 3.13952,5.91082 1.71779,2.38403 5.22493,7.39137 7.79366,11.12742 2.56873,3.73606 5.25344,7.01656 5.96604,7.29001 0.7126,0.27345 3.38636,0.49718 5.94166,0.49718 5.98715,0 7.42486,1.7341 6.88045,8.29892 -0.50845,6.13131 -1.39631,6.61931 -12.09902,6.65008 -10.02537,0.0289 -9.713,0.21119 -16.15571,-9.43224 -3.24557,-4.85798 -7.3781,-10.56395 -9.84603,-13.59488 -0.61765,-0.75855 -1.60821,-1.37919 -2.20124,-1.37919 -0.59303,0 -4.70269,5.14477 -9.13256,11.43281 -4.42988,6.28805 -8.71259,11.78511 -9.51713,12.21569 -1.91402,1.02435 -17.32045,0.96921 -19.10186,-0.0683 z"
         id="path179" /><path
         id="path2824"
         style="fill:#adc80c;fill-opacity:1;stroke-width:0.278904"
         d="m 30.419,155.55291 v 1.50937 1.50937 1.50938 c 0,1.36163 0.67237,1.50937 1.47463,1.50937 h 1.47462 1.47464 1.47462 1.47463 1.47463 1.47462 c 1.87086,0 1.47463,-1.3478 1.47463,-1.50955 v -1.50954 -1.50956 -1.50954 -1.50954 -1.50955 -1.50955 c 0,-1.42111 -1.16696,-1.50955 -1.47463,-1.50955 h -1.47462 -1.47463 -1.47463 -1.47462 -1.47464 -1.47462 c -1.47517,0 -1.47463,0.57614 -1.47463,1.50972 v 1.50972 1.50972 z"
         sodipodi:nodetypes="cccsscccccsscccccsscccccssccc" /><path
         id="path2827"
         style="fill:#adc80c;fill-opacity:1;stroke-width:0.278904"
         d="m 361.99767,154.81132 v 1.50937 1.50937 1.50938 c 0,1.36163 0.67237,1.50937 1.47463,1.50937 h 1.47462 1.47464 1.47462 1.47463 1.47463 1.47462 c 1.87086,0 1.47463,-1.3478 1.47463,-1.50955 v -1.50954 -1.50956 -1.50954 -1.50954 -1.50955 -1.50955 c 0,-1.42111 -1.16696,-1.50955 -1.47463,-1.50955 h -1.47462 -1.47463 -1.47463 -1.47462 -1.47464 -1.47462 c -1.47517,0 -1.47463,0.57614 -1.47463,1.50972 v 1.50972 1.50972 z"
         sodipodi:nodetypes="cccsscccccsscccccsscccccssccc" /></g><g
       id="g418"
       transform="matrix(0.43773402,0,0,-0.43773402,87.940091,264.43479)"><g
         id="g340" /><g
         id="g348"><g
           id="g346"
           clip-path="url(#clipPath210)"><g
             id="g344"
             clip-path="url(#clipPath216)"><path
               d="M -1,513 H 513 V -1 H -1 Z"
               style="fill:#f6b102;fill-opacity:1;fill-rule:nonzero;stroke:none"
               id="path342" /></g></g></g><g
         id="g356"><g
           id="g354"
           clip-path="url(#clipPath226)"><g
             id="g352"
             clip-path="url(#clipPath232)"><path
               d="M 252.6875,363 H 425.7089 V 161.0939 H 252.6875 Z"
               style="fill:#fdebbf;fill-opacity:1;fill-rule:nonzero;stroke:none"
               id="path350" /></g></g></g><g
         id="g364"><g
           id="g362"
           clip-path="url(#clipPath242)"><g
             id="g360"
             clip-path="url(#clipPath248)"><path
               d="M 82.51535,363 H 311.6214 V 161.0939 H 82.51535 Z"
               style="fill:#ffffff;fill-opacity:1;fill-rule:nonzero;stroke:none"
               id="path358" /></g></g></g><g
         id="g366" /><g
         id="g374"><g
           id="g372"
           clip-path="url(#clipPath210)"><g
             id="g370"
             clip-path="url(#clipPath216)"><path
               d="M -1,513 H 513 V -1 H -1 Z"
               style="fill:#f6b102;fill-opacity:1;fill-rule:nonzero;stroke:none"
               id="path368" /></g></g></g><g
         id="g382"><g
           id="g380"
           clip-path="url(#clipPath226)"><g
             id="g378"
             clip-path="url(#clipPath232)"><path
               d="M 252.6875,363 H 425.7089 V 161.0939 H 252.6875 Z"
               style="fill:#fdebbf;fill-opacity:1;fill-rule:nonzero;stroke:none"
               id="path376" /></g></g></g><g
         id="g390"><g
           id="g388"
           clip-path="url(#clipPath242)"><g
             id="g386"
             clip-path="url(#clipPath248)"><path
               d="M 82.51535,363 H 311.6214 V 161.0939 H 82.51535 Z"
               style="fill:#ffffff;fill-opacity:1;fill-rule:nonzero;stroke:none"
               id="path384" /></g></g></g></g></g></svg>
